<svg xmlns="http://www.w3.org/2000/svg" viewBox="0 0 800 420" role="img" aria-labelledby="title desc">
  <title id="title">Dorfcharakter bewahren</title>
  <desc id="desc">Stilisierte Dorf-Silhouette mit Häusern und Kirchturm.</desc>
  <defs>
    <linearGradient id="bg" x1="0" y1="0" x2="1" y2="1">
      <stop offset="0%" stop-color="#f6f1fc"/>
      <stop offset="100%" stop-color="#ddd0f0"/>
    </linearGradient>
  </defs>
  <rect width="800" height="420" fill="url(#bg)"/>
  <path d="M0 315 Q220 275 420 305 T800 300 V420 H0 Z" fill="#c8b4e4"/>
  <rect x="130" y="205" width="110" height="120" rx="10" fill="#fff9f2" stroke="#7b4a7c" stroke-width="7"/>
  <path d="M118 210 L185 152 L252 210" fill="#7b4a7c"/>
  <rect x="305" y="230" width="125" height="95" rx="10" fill="#fff9f2" stroke="#7b4a7c" stroke-width="7"/>
  <path d="M293 235 L367 177 L442 235" fill="#7b4a7c"/>
  <rect x="500" y="170" width="95" height="155" rx="10" fill="#fff9f2" stroke="#7b4a7c" stroke-width="7"/>
  <path d="M490 176 L548 120 L606 176" fill="#7b4a7c"/>
  <rect x="540" y="108" width="15" height="34" fill="#7b4a7c"/>
  <rect x="162" y="248" width="36" height="77" rx="6" fill="#d4b891"/>
  <rect x="350" y="263" width="33" height="62" rx="6" fill="#d4b891"/>
</svg>
